<svg width="26" height="23" viewBox="0 0 26 23" fill="none" xmlns="http://www.w3.org/2000/svg">
<path fill-rule="evenodd" clip-rule="evenodd" d="M2.40864 18.4336C2.93933 18.8964 3.30185 19.2132 3.56616 19.4442L3.56868 19.4464C3.75131 19.6059 3.88694 19.7245 3.99883 19.8219C4.4326 20.2017 4.60164 20.6363 4.70739 20.9082C4.73763 20.9859 4.7627 21.0504 4.7873 21.0965L12.424 12.1899L13 12.8459L5.10181 21.8409L5.08664 21.8276C4.428 22.4637 3.41902 22.1019 2.2745 21.6916L2.27434 21.6915C2.11589 21.6347 1.95484 21.577 1.79177 21.5208C0.399938 21.0411 -0.216937 20.3867 0.0680504 19.051C0.352486 17.7136 1.51037 17.648 2.40864 18.4336ZM13.576 12.1899L13 12.8459L20.8982 21.8409L20.9134 21.8276C21.572 22.4637 22.581 22.1019 23.7255 21.6916L23.7256 21.6915C23.8841 21.6347 24.0451 21.577 24.2082 21.5208C25.6001 21.0411 26.2169 20.3867 25.9319 19.051C25.6475 17.7136 24.4896 17.648 23.5914 18.4336C23.0608 18.8963 22.6984 19.213 22.4341 19.444C22.2501 19.6048 22.1136 19.724 22.0012 19.8219C21.5674 20.2016 21.3984 20.6363 21.2926 20.9082C21.2624 20.9859 21.2373 21.0504 21.2127 21.0965L13.576 12.1899ZM13 11.5181L12.424 12.1899L9.1671 8.48072L9.01895 8.61055L2.2714 1.11341L2.51253 0.902469L3.30431 0.210668H3.30486L3.54681 0L10.0174 7.73742L9.8695 7.86698L13 11.5181ZM13 11.5181L13.576 12.1899L16.8329 8.48072L16.9811 8.61055L23.7286 1.11341L23.4875 0.902469L22.6957 0.210668H22.6951L22.4532 0L15.9826 7.73742L16.1305 7.86698L13 11.5181ZM11.4884 20.8457C11.4884 20.0188 12.1566 19.3488 12.9803 19.3488C13.8044 19.3488 14.4723 20.0185 14.4723 20.8457C14.4723 21.6728 13.8044 22.3428 12.9803 22.3428C12.1566 22.3428 11.4884 21.6723 11.4884 20.8457Z" fill="#4A4A4A"/>
</svg>
